<?xml version="1.0" encoding="UTF-8" standalone="no"?>
<!DOCTYPE svg PUBLIC "-//W3C//DTD SVG 1.1//EN" "http://www.w3.org/Graphics/SVG/1.1/DTD/svg11.dtd">
<svg width="100%" height="100%" viewBox="0 0 50 50" version="1.1" xmlns="http://www.w3.org/2000/svg" xmlns:xlink="http://www.w3.org/1999/xlink" xml:space="preserve" xmlns:serif="http://www.serif.com/" style="fill-rule:evenodd;clip-rule:evenodd;stroke-linejoin:round;stroke-miterlimit:2;">
    <g transform="matrix(1,0,0,1,0,0.616722)">
        <path d="M25,0C11.188,0 0,11.188 0,25C0,36.063 7.156,45.406 17.094,48.719C18.344,48.938 18.813,48.188 18.813,47.531C18.813,46.938 18.781,44.969 18.781,42.875C12.5,44.031 10.875,41.344 10.375,39.938C10.094,39.219 8.875,37 7.813,36.406C6.938,35.938 5.688,34.781 7.781,34.75C9.75,34.719 11.156,36.563 11.625,37.313C13.875,41.094 17.469,40.031 18.906,39.375C19.125,37.75 19.781,36.656 20.5,36.031C14.938,35.406 9.125,33.25 9.125,23.688C9.125,20.969 10.094,18.719 11.688,16.969C11.438,16.344 10.563,13.781 11.938,10.344C11.938,10.344 14.031,9.688 18.813,12.906C20.813,12.344 22.938,12.063 25.063,12.063C27.188,12.063 29.313,12.344 31.313,12.906C36.094,9.656 38.188,10.344 38.188,10.344C39.563,13.781 38.688,16.344 38.438,16.969C40.031,18.719 41,20.938 41,23.688C41,33.281 35.156,35.406 29.594,36.031C30.5,36.813 31.281,38.313 31.281,40.656C31.281,44 31.25,46.688 31.25,47.531C31.25,48.188 31.719,48.969 32.969,48.719C37.932,47.043 42.244,43.853 45.299,39.599C48.355,35.344 49.999,30.238 50,25C50,11.188 38.813,0 25,0Z" style="fill:white;"/>
        <path d="M25,0C11.188,0 0,11.188 0,25C0,36.063 7.156,45.406 17.094,48.719C18.344,48.938 18.813,48.188 18.813,47.531C18.813,46.938 18.781,44.969 18.781,42.875C12.5,44.031 10.875,41.344 10.375,39.938C10.094,39.219 8.875,37 7.813,36.406C6.938,35.938 5.688,34.781 7.781,34.75C9.75,34.719 11.156,36.563 11.625,37.313C13.875,41.094 17.469,40.031 18.906,39.375C19.125,37.75 19.781,36.656 20.5,36.031C14.938,35.406 9.125,33.25 9.125,23.688C9.125,20.969 10.094,18.719 11.688,16.969C11.438,16.344 10.563,13.781 11.938,10.344C11.938,10.344 14.031,9.688 18.813,12.906C20.813,12.344 22.938,12.063 25.063,12.063C27.188,12.063 29.313,12.344 31.313,12.906C36.094,9.656 38.188,10.344 38.188,10.344C39.563,13.781 38.688,16.344 38.438,16.969C40.031,18.719 41,20.938 41,23.688C41,33.281 35.156,35.406 29.594,36.031C30.5,36.813 31.281,38.313 31.281,40.656C31.281,44 31.25,46.688 31.25,47.531C31.25,48.188 31.719,48.969 32.969,48.719C37.932,47.043 42.244,43.853 45.299,39.599C48.355,35.344 49.999,30.238 50,25C50,11.188 38.813,0 25,0ZM25,1.01C38.254,1.01 48.989,11.746 48.99,25C48.988,30.027 47.41,34.926 44.478,39.009C41.561,43.072 37.449,46.123 32.716,47.737C32.547,47.769 32.421,47.776 32.329,47.723C32.261,47.683 32.26,47.597 32.26,47.531C32.26,46.688 32.292,44 32.292,40.656C32.292,39.021 31.944,37.744 31.439,36.786C34.451,36.248 37.367,35.115 39.373,32.632C40.966,30.66 42.01,27.823 42.01,23.688C42.01,20.895 41.1,18.6 39.582,16.748C39.937,15.566 40.375,13.091 39.126,9.969L38.951,9.531L38.503,9.384C38.503,9.384 36.211,8.48 31.132,11.812C29.179,11.306 27.121,11.052 25.063,11.052C23.003,11.052 20.944,11.306 18.989,11.812C13.92,8.517 11.635,9.38 11.635,9.38L11.177,9.523L10.999,9.969C9.75,13.092 10.188,15.567 10.543,16.75C9.025,18.605 8.115,20.926 8.115,23.688C8.115,27.809 9.153,30.644 10.739,32.617C12.738,35.103 15.647,36.245 18.658,36.786C18.382,37.311 18.153,37.931 18.004,38.653C16.628,39.152 14.126,39.54 12.493,36.796L12.488,36.786C11.913,35.866 10.156,33.702 7.766,33.74C6.013,33.766 5.637,34.653 5.625,35.19C5.619,35.491 5.722,35.843 5.973,36.185C6.272,36.591 6.837,37.029 7.328,37.293C7.646,37.473 7.968,37.87 8.275,38.293C8.814,39.034 9.268,39.891 9.427,40.288C9.738,41.154 10.392,42.394 11.916,43.249C13.138,43.934 14.977,44.39 17.774,44.051C17.782,45.67 17.802,47.051 17.802,47.531C17.802,47.588 17.799,47.655 17.752,47.697C17.665,47.773 17.529,47.766 17.344,47.736C7.842,44.536 1.01,35.588 1.01,25C1.01,11.746 11.746,1.01 25,1.01Z"/>
    </g>
</svg>
