<svg width="67" height="50" viewBox="0 0 67 50" fill="none" xmlns="http://www.w3.org/2000/svg">
<g clip-path="url(#clip0_372_3551)">
<path d="M15.0775 49.7537V24.1294L7.13056 16.8592L0.00439453 12.8247V45.2317C0.00439453 47.7338 2.0316 49.7537 4.52642 49.7537H15.0775Z" fill="#4285F4"/>
<path d="M51.2526 49.754H61.8036C64.3059 49.754 66.3256 47.7265 66.3256 45.2319V12.8252L58.2541 17.4462L51.2526 24.1296V49.754Z" fill="#34A853"/>
<path d="M15.0774 24.1295L13.9961 14.1173L15.0774 4.53467L33.165 18.1005L51.2526 4.53467L52.4622 13.6L51.2526 24.1295L33.165 37.6953L15.0774 24.1295Z" fill="#EA4335"/>
<path d="M51.2526 4.53464V24.1295L66.3256 12.8248V6.79552C66.3256 1.20355 59.9422 -1.98428 55.4733 1.36935L51.2526 4.53464Z" fill="#FBBC04"/>
<path d="M0.00439453 12.8249L6.93678 18.0244L15.0775 24.1296V4.53475L10.8567 1.36947C6.38004 -1.98442 0.00439453 1.20367 0.00439453 6.79538V12.8246V12.8249Z" fill="#C5221F"/>
</g>
<defs>
<clipPath id="clip0_372_3551">
<rect width="66.33" height="50" fill="white"/>
</clipPath>
</defs>
</svg>
