<?xml version="1.0" encoding="UTF-8" standalone="no"?>
<!DOCTYPE svg PUBLIC "-//W3C//DTD SVG 1.1//EN" "http://www.w3.org/Graphics/SVG/1.1/DTD/svg11.dtd">
<svg width="100%" height="100%" viewBox="0 0 50 50" version="1.1" xmlns="http://www.w3.org/2000/svg" xmlns:xlink="http://www.w3.org/1999/xlink" xml:space="preserve" xmlns:serif="http://www.serif.com/" style="fill-rule:evenodd;clip-rule:evenodd;stroke-linejoin:round;stroke-miterlimit:2;">
    <path d="M25,0C18.216,0 17.363,0.031 14.697,0.15C12.031,0.275 10.216,0.694 8.625,1.313C6.957,1.94 5.445,2.924 4.197,4.197C2.925,5.446 1.941,6.957 1.313,8.625C0.694,10.213 0.272,12.031 0.15,14.688C0.031,17.359 0,18.209 0,25.003C0,31.791 0.031,32.641 0.15,35.306C0.275,37.969 0.694,39.784 1.313,41.375C1.953,43.019 2.806,44.413 4.197,45.803C5.584,47.194 6.978,48.05 8.622,48.688C10.216,49.306 12.028,49.728 14.691,49.85C17.359,49.969 18.209,50 25,50C31.791,50 32.638,49.969 35.306,49.85C37.966,49.725 39.788,49.306 41.378,48.688C43.045,48.06 44.556,47.075 45.803,45.803C47.194,44.413 48.047,43.019 48.688,41.375C49.303,39.784 49.725,37.969 49.85,35.306C49.969,32.641 50,31.791 50,25C50,18.209 49.969,17.359 49.85,14.691C49.725,12.031 49.303,10.213 48.688,8.625C48.059,6.957 47.075,5.446 45.803,4.197C44.555,2.924 43.044,1.94 41.375,1.313C39.781,0.694 37.963,0.272 35.303,0.15C32.634,0.031 31.788,0 24.994,0L25.003,0L25,0ZM22.759,4.5L25.003,4.506C31.678,4.506 32.469,4.528 35.103,4.65C37.541,4.759 38.866,5.169 39.747,5.509C40.913,5.963 41.747,6.506 42.622,7.381C43.497,8.256 44.038,9.088 44.491,10.256C44.834,11.134 45.241,12.459 45.35,14.897C45.472,17.531 45.497,18.322 45.497,24.994C45.497,31.666 45.472,32.459 45.35,35.094C45.241,37.531 44.831,38.853 44.491,39.734C44.09,40.82 43.45,41.801 42.619,42.606C41.744,43.481 40.913,44.022 39.744,44.475C38.869,44.819 37.544,45.225 35.103,45.338C32.469,45.456 31.678,45.484 25.003,45.484C18.328,45.484 17.534,45.456 14.9,45.338C12.463,45.225 11.141,44.819 10.259,44.475C9.173,44.075 8.191,43.436 7.384,42.606C6.552,41.8 5.912,40.818 5.509,39.731C5.169,38.853 4.759,37.528 4.65,35.091C4.531,32.456 4.506,31.666 4.506,24.988C4.506,18.313 4.531,17.525 4.65,14.891C4.763,12.453 5.169,11.128 5.513,10.247C5.966,9.081 6.509,8.247 7.384,7.372C8.259,6.497 9.091,5.956 10.259,5.503C11.141,5.159 12.463,4.753 14.9,4.641C17.206,4.534 18.1,4.503 22.759,4.5ZM38.347,8.656C37.953,8.656 37.563,8.734 37.199,8.885C36.835,9.035 36.504,9.256 36.226,9.535C35.947,9.814 35.726,10.144 35.575,10.508C35.425,10.872 35.347,11.262 35.347,11.656C35.347,12.05 35.425,12.44 35.575,12.804C35.726,13.168 35.947,13.499 36.226,13.778C36.504,14.056 36.835,14.277 37.199,14.428C37.563,14.579 37.953,14.656 38.347,14.656C39.143,14.656 39.906,14.34 40.468,13.778C41.031,13.215 41.347,12.452 41.347,11.656C41.347,10.861 41.031,10.098 40.468,9.535C39.906,8.972 39.143,8.656 38.347,8.656ZM25.003,12.163C23.3,12.136 21.609,12.448 20.028,13.082C18.447,13.715 17.008,14.657 15.794,15.851C14.581,17.046 13.617,18.471 12.959,20.041C12.301,21.612 11.962,23.299 11.962,25.002C11.962,26.705 12.301,28.391 12.959,29.962C13.617,31.533 14.581,32.957 15.794,34.152C17.008,35.347 18.447,36.288 20.028,36.921C21.609,37.555 23.3,37.867 25.003,37.841C28.374,37.788 31.588,36.412 33.953,34.01C36.318,31.608 37.643,28.372 37.643,25.002C37.643,21.631 36.318,18.395 33.953,15.993C31.588,13.591 28.374,12.215 25.003,12.163ZM25.003,16.666C27.214,16.666 29.333,17.544 30.896,19.107C32.459,20.67 33.338,22.79 33.338,25C33.338,27.21 32.459,29.33 30.896,30.893C29.333,32.456 27.214,33.334 25.003,33.334C22.793,33.334 20.673,32.456 19.11,30.893C17.547,29.33 16.669,27.21 16.669,25C16.669,22.79 17.547,20.67 19.11,19.107C20.673,17.544 22.793,16.666 25.003,16.666Z" style="fill:white;fill-rule:nonzero;"/>
    <path d="M24.997,0L25,0L24.994,0L24.997,0C18.215,0 17.362,0.031 14.697,0.15C12.031,0.275 10.216,0.694 8.625,1.313C6.957,1.94 5.445,2.924 4.197,4.197C2.925,5.446 1.941,6.957 1.313,8.625C0.694,10.213 0.272,12.031 0.15,14.688C0.031,17.359 0,18.209 0,25.003C0,31.791 0.031,32.641 0.15,35.306C0.275,37.969 0.694,39.784 1.313,41.375C1.953,43.019 2.806,44.413 4.197,45.803C5.584,47.194 6.978,48.05 8.622,48.688C10.216,49.306 12.028,49.728 14.691,49.85C17.359,49.969 18.209,50 25,50C31.791,50 32.638,49.969 35.306,49.85C37.966,49.725 39.788,49.306 41.378,48.688C43.045,48.06 44.556,47.075 45.803,45.803C47.194,44.413 48.047,43.019 48.688,41.375C49.303,39.784 49.725,37.969 49.85,35.306C49.969,32.641 50,31.791 50,25C50,18.209 49.969,17.359 49.85,14.691C49.725,12.031 49.303,10.213 48.688,8.625C48.059,6.957 47.075,5.446 45.803,4.197C44.555,2.924 43.044,1.94 41.375,1.313C39.781,0.694 37.963,0.272 35.303,0.15C32.635,0.031 31.788,0 24.997,0ZM24.997,0.722C31.766,0.722 32.611,0.753 35.27,0.871C37.829,0.988 39.58,1.39 41.114,1.985C41.116,1.986 41.119,1.987 41.121,1.988C42.691,2.578 44.113,3.504 45.288,4.702C45.291,4.705 45.294,4.709 45.297,4.712C46.494,5.887 47.421,7.31 48.012,8.879C48.013,8.882 48.014,8.884 48.015,8.886C48.607,10.414 49.009,12.165 49.129,14.724C49.247,17.383 49.278,18.232 49.278,25C49.278,31.768 49.247,32.617 49.129,35.273C49.009,37.835 48.607,39.583 48.015,41.114C47.41,42.665 46.605,43.98 45.293,45.293C45.291,45.294 45.289,45.296 45.288,45.298C44.114,46.495 42.693,47.421 41.124,48.012C41.121,48.013 41.119,48.014 41.116,48.015C39.586,48.61 37.832,49.009 35.273,49.129C32.613,49.247 31.768,49.278 25,49.278C18.231,49.278 17.383,49.247 14.723,49.129C12.161,49.012 10.417,48.61 8.883,48.015C8.883,48.015 8.883,48.015 8.883,48.015C7.332,47.413 6.017,46.605 4.708,45.293C4.708,45.293 4.707,45.293 4.707,45.293C3.395,43.98 2.59,42.665 1.985,41.113C1.39,39.583 0.991,37.835 0.871,35.273C0.753,32.617 0.722,31.768 0.722,25.003C0.722,18.231 0.753,17.383 0.871,14.72C0.988,12.165 1.39,10.414 1.985,8.887C1.986,8.885 1.987,8.882 1.988,8.879C2.579,7.31 3.506,5.887 4.703,4.712C4.706,4.709 4.709,4.706 4.712,4.702C5.887,3.505 7.309,2.579 8.879,1.988C8.882,1.987 8.884,1.986 8.887,1.985C10.417,1.39 12.165,0.991 14.73,0.871C17.386,0.753 18.237,0.722 24.997,0.722ZM22.761,3.778C22.761,3.778 22.76,3.778 22.759,3.778C18.08,3.781 17.183,3.813 14.867,3.92C14.867,3.92 14.867,3.92 14.867,3.92C12.309,4.038 10.923,4.47 9.998,4.83C8.728,5.323 7.825,5.911 6.874,6.861C5.923,7.812 5.332,8.719 4.84,9.985C4.479,10.91 4.047,12.3 3.929,14.857C3.929,14.858 3.929,14.858 3.929,14.858C3.81,17.501 3.784,18.291 3.784,24.988C3.784,31.687 3.81,32.48 3.929,35.123C4.044,37.677 4.478,39.066 4.835,39.988C5.273,41.17 5.97,42.239 6.874,43.117C7.753,44.019 8.822,44.713 10.003,45.15C10.927,45.51 12.313,45.941 14.867,46.059C14.867,46.059 14.867,46.059 14.867,46.059C17.51,46.178 18.307,46.206 25.003,46.206C31.7,46.206 32.493,46.178 35.136,46.059C35.136,46.059 35.136,46.059 35.136,46.059C37.699,45.94 39.089,45.508 40.008,45.147C41.273,44.656 42.176,44.069 43.125,43.12C44.031,42.243 44.728,41.173 45.165,39.991C45.523,39.066 45.956,37.68 46.071,35.126C46.193,32.484 46.219,31.688 46.219,24.994C46.219,18.3 46.193,17.507 46.071,14.864C45.956,12.307 45.524,10.917 45.164,9.995C44.671,8.725 44.083,7.822 43.132,6.871C42.181,5.92 41.275,5.329 40.008,4.837C40.008,4.836 40.008,4.836 40.007,4.836C39.082,4.479 37.693,4.044 35.135,3.929C32.493,3.807 31.7,3.784 25.004,3.784C25.004,3.784 22.761,3.778 22.761,3.778ZM22.759,4.5L25.003,4.506C31.678,4.506 32.469,4.528 35.103,4.65C37.541,4.759 38.866,5.169 39.747,5.509C40.913,5.963 41.747,6.506 42.622,7.381C43.497,8.256 44.038,9.088 44.491,10.256C44.834,11.134 45.241,12.459 45.35,14.897C45.472,17.531 45.497,18.322 45.497,24.994C45.497,31.666 45.472,32.459 45.35,35.094C45.241,37.531 44.831,38.853 44.491,39.734C44.09,40.82 43.45,41.801 42.619,42.606C41.744,43.481 40.913,44.022 39.744,44.475C38.869,44.819 37.544,45.225 35.103,45.338C32.469,45.456 31.678,45.484 25.003,45.484C18.328,45.484 17.534,45.456 14.9,45.338C12.463,45.225 11.141,44.819 10.259,44.475C9.173,44.075 8.191,43.436 7.384,42.606C6.552,41.8 5.912,40.818 5.509,39.731C5.169,38.853 4.759,37.528 4.65,35.091C4.531,32.456 4.506,31.666 4.506,24.988C4.506,18.313 4.531,17.525 4.65,14.891C4.763,12.453 5.169,11.128 5.513,10.247C5.966,9.081 6.509,8.247 7.384,7.372C8.259,6.497 9.091,5.956 10.259,5.503C11.141,5.159 12.463,4.753 14.9,4.641C17.206,4.534 18.1,4.503 22.759,4.5ZM25.003,12.163C23.3,12.136 21.609,12.448 20.028,13.082C18.447,13.715 17.008,14.657 15.794,15.851C14.581,17.046 13.617,18.471 12.959,20.041C12.301,21.612 11.962,23.299 11.962,25.002C11.962,26.705 12.301,28.391 12.959,29.962C13.617,31.533 14.581,32.957 15.794,34.152C17.008,35.347 18.447,36.288 20.028,36.921C21.609,37.555 23.3,37.867 25.003,37.841C28.374,37.788 31.588,36.412 33.953,34.01C36.318,31.608 37.643,28.372 37.643,25.002C37.643,21.631 36.318,18.395 33.953,15.993C31.588,13.591 28.374,12.215 25.003,12.163ZM24.992,12.884C24.992,12.884 24.992,12.884 24.992,12.884C28.173,12.934 31.207,14.232 33.439,16.499C35.671,18.766 36.922,21.82 36.922,25.002C36.922,28.183 35.671,31.237 33.439,33.504C31.207,35.771 28.173,37.069 24.992,37.119C24.992,37.119 24.992,37.119 24.992,37.119C23.385,37.144 21.789,36.849 20.297,36.251C20.297,36.251 20.296,36.251 20.296,36.251C18.804,35.654 17.446,34.765 16.301,33.637C15.155,32.51 14.246,31.165 13.625,29.683C13.004,28.2 12.684,26.609 12.684,25.002C12.684,23.394 13.004,21.803 13.625,20.32C14.246,18.838 15.155,17.493 16.301,16.366C17.446,15.238 18.804,14.349 20.296,13.752C20.296,13.752 20.297,13.752 20.297,13.752C21.789,13.154 23.385,12.859 24.992,12.884ZM25.003,15.944C22.601,15.944 20.298,16.898 18.599,18.596C16.901,20.295 15.947,22.598 15.947,25C15.947,27.402 16.901,29.705 18.599,31.404C20.298,33.102 22.601,34.056 25.003,34.056C27.405,34.056 29.708,33.102 31.407,31.404C33.105,29.705 34.059,27.402 34.059,25C34.059,22.598 33.105,20.295 31.407,18.596C29.708,16.898 27.405,15.944 25.003,15.944ZM25.003,16.666C27.214,16.666 29.333,17.544 30.896,19.107C32.459,20.67 33.338,22.79 33.338,25C33.338,27.21 32.459,29.33 30.896,30.893C29.333,32.456 27.214,33.334 25.003,33.334C22.793,33.334 20.673,32.456 19.11,30.893C17.547,29.33 16.669,27.21 16.669,25C16.669,22.79 17.547,20.67 19.11,19.107C20.673,17.544 22.793,16.666 25.003,16.666ZM38.347,8.656C37.953,8.656 37.563,8.734 37.199,8.885C36.835,9.035 36.504,9.256 36.226,9.535C35.947,9.814 35.726,10.144 35.575,10.508C35.425,10.872 35.347,11.262 35.347,11.656C35.347,12.05 35.425,12.44 35.575,12.804C35.726,13.168 35.947,13.499 36.226,13.778C36.504,14.056 36.835,14.277 37.199,14.428C37.563,14.579 37.953,14.656 38.347,14.656C39.143,14.656 39.906,14.34 40.468,13.778C41.031,13.215 41.347,12.452 41.347,11.656C41.347,10.861 41.031,10.098 40.468,9.535C39.906,8.972 39.143,8.656 38.347,8.656ZM38.347,9.378C38.951,9.378 39.531,9.618 39.958,10.045C39.958,10.045 39.958,10.045 39.958,10.045C40.385,10.473 40.625,11.052 40.625,11.656C40.625,12.26 40.385,12.84 39.958,13.267C39.531,13.694 38.951,13.934 38.347,13.934C38.347,13.934 38.347,13.934 38.347,13.934C38.048,13.934 37.751,13.876 37.475,13.761C37.199,13.647 36.947,13.479 36.736,13.267C36.524,13.056 36.357,12.805 36.242,12.528C36.128,12.252 36.069,11.955 36.069,11.656C36.069,11.357 36.128,11.061 36.242,10.784C36.357,10.508 36.524,10.257 36.736,10.045C36.736,10.045 36.736,10.045 36.736,10.045C36.948,9.834 37.199,9.666 37.475,9.551C37.751,9.437 38.048,9.378 38.347,9.378Z"/>
</svg>
