<svg width="50" height="50" viewBox="0 0 50 50" fill="none" xmlns="http://www.w3.org/2000/svg">
<g clip-path="url(#clip0_372_3559)">
<path d="M42.6022 42.6031H35.1938V31.0009C35.1938 28.2343 35.1444 24.6728 31.3406 24.6728C27.482 24.6728 26.8916 27.6872 26.8916 30.7995V42.6023H19.4834V18.7437H26.5953V22.0042H26.6949C27.4067 20.7872 28.4352 19.7861 29.6709 19.1074C30.9066 18.4287 32.3033 18.0978 33.7121 18.1501C41.2209 18.1501 42.6053 23.0892 42.6053 29.5146L42.6022 42.6031ZM11.124 15.4825C8.74962 15.4829 6.82443 13.5583 6.82404 11.1839C6.82364 8.8095 8.74806 6.8843 11.1225 6.88391C13.4969 6.88333 15.4221 8.80794 15.4225 11.1824C15.4227 12.3226 14.9699 13.4162 14.1638 14.2227C13.3577 15.0291 12.2643 15.4823 11.124 15.4825ZM14.8283 42.6032H7.41212V18.7437H14.8281V42.6031L14.8283 42.6032ZM46.2955 0.00363904H3.68947C1.67579 -0.0190172 0.0244263 1.59407 -0.000183105 3.60774V46.3915C0.023645 48.4062 1.67482 50.0208 3.68927 49.9997H46.2955C48.3143 50.0247 49.9719 48.4101 49.9998 46.3915V3.60442C49.9711 1.58684 48.3133 -0.0260485 46.2955 0.000318729" fill="#0A66C2"/>
</g>
<defs>
<clipPath id="clip0_372_3559">
<rect width="50" height="50" fill="white"/>
</clipPath>
</defs>
</svg>
